<?xml version="1.0" encoding="UTF-8" standalone="no"?>
<!DOCTYPE svg PUBLIC "-//W3C//DTD SVG 1.1//EN"
 "http://www.w3.org/Graphics/SVG/1.1/DTD/svg11.dtd">
<!-- Generated by graphviz version 2.43.0 (0)
 -->
<!-- Title: %3 Pages: 1 -->
<svg width="144pt" height="188pt"
 viewBox="0.00 0.00 144.29 188.00" xmlns="http://www.w3.org/2000/svg" xmlns:xlink="http://www.w3.org/1999/xlink">
<g id="graph0" class="graph" transform="scale(1 1) rotate(0) translate(4 184)">
<title>%3</title>
<polygon fill="white" stroke="transparent" points="-4,4 -4,-184 140.29,-184 140.29,4 -4,4"/>
<!-- markdown -->
<g id="node1" class="node">
<title>markdown</title>
<ellipse fill="none" stroke="black" cx="59.79" cy="-90" rx="59.59" ry="18"/>
<text text-anchor="middle" x="59.79" y="-86.3" font-family="Times,serif" font-size="14.00">markdown</text>
</g>
<!-- html -->
<g id="node2" class="node">
<title>html</title>
<ellipse fill="none" stroke="black" cx="103.79" cy="-18" rx="32.49" ry="18"/>
<text text-anchor="middle" x="103.79" y="-14.3" font-family="Times,serif" font-size="14.00">html</text>
</g>
<!-- markdown&#45;&gt;html -->
<g id="edge1" class="edge">
<title>markdown&#45;&gt;html</title>
<path fill="none" stroke="black" d="M70.45,-72.05C75.77,-63.59 82.3,-53.19 88.18,-43.84"/>
<polygon fill="black" stroke="black" points="91.19,-45.64 93.54,-35.31 85.26,-41.91 91.19,-45.64"/>
</g>
<!-- org -->
<g id="node3" class="node">
<title>org</title>
<ellipse fill="none" stroke="black" cx="103.79" cy="-162" rx="27" ry="18"/>
<text text-anchor="middle" x="103.79" y="-158.3" font-family="Times,serif" font-size="14.00">org</text>
</g>
<!-- org&#45;&gt;markdown -->
<g id="edge3" class="edge">
<title>org&#45;&gt;markdown</title>
<path fill="none" stroke="black" d="M93.81,-145.12C88.51,-136.68 81.86,-126.1 75.85,-116.55"/>
<polygon fill="black" stroke="black" points="78.64,-114.4 70.35,-107.8 72.71,-118.13 78.64,-114.4"/>
</g>
<!-- org&#45;&gt;html -->
<g id="edge2" class="edge">
<title>org&#45;&gt;html</title>
<path fill="none" stroke="black" d="M113.64,-144.97C119.3,-134.79 125.86,-121.1 128.79,-108 132.29,-92.39 132.29,-87.61 128.79,-72 126.69,-62.62 122.74,-52.95 118.59,-44.48"/>
<polygon fill="black" stroke="black" points="121.63,-42.74 113.9,-35.5 115.43,-45.98 121.63,-42.74"/>
</g>
</g>
</svg>
