<?xml version="1.0" encoding="UTF-8" standalone="no"?>
<!DOCTYPE svg PUBLIC "-//W3C//DTD SVG 1.1//EN"
 "http://www.w3.org/Graphics/SVG/1.1/DTD/svg11.dtd">
<!-- Generated by graphviz version 2.43.0 (0)
 -->
<!-- Title: %3 Pages: 1 -->
<svg width="167pt" height="131pt"
 viewBox="0.00 0.00 166.59 131.00" xmlns="http://www.w3.org/2000/svg" xmlns:xlink="http://www.w3.org/1999/xlink">
<g id="graph0" class="graph" transform="scale(1 1) rotate(0) translate(4 127)">
<title>%3</title>
<polygon fill="white" stroke="transparent" points="-4,4 -4,-127 162.59,-127 162.59,4 -4,4"/>
<!-- markdownファイル -->
<g id="node1" class="node">
<title>markdownファイル</title>
<ellipse fill="none" stroke="black" cx="79.29" cy="-105" rx="79.09" ry="18"/>
<text text-anchor="middle" x="79.29" y="-101.3" font-family="Times,serif" font-size="14.00">markdownファイル</text>
</g>
<!-- orgファイル -->
<g id="node2" class="node">
<title>orgファイル</title>
<ellipse fill="none" stroke="black" cx="79.29" cy="-18" rx="52.79" ry="18"/>
<text text-anchor="middle" x="79.29" y="-14.3" font-family="Times,serif" font-size="14.00">orgファイル</text>
</g>
<!-- markdownファイル&#45;&gt;orgファイル -->
<g id="edge1" class="edge">
<title>markdownファイル&#45;&gt;orgファイル</title>
<path fill="none" stroke="black" d="M69.79,-87.06C67.14,-81.49 64.63,-75.14 63.29,-69 61.59,-61.2 62.93,-52.88 65.43,-45.31"/>
<polygon fill="black" stroke="black" points="68.73,-46.49 69.22,-35.91 62.23,-43.87 68.73,-46.49"/>
<text text-anchor="middle" x="68.79" y="-57.8" font-family="Times,serif" font-size="14.00">☓</text>
</g>
<!-- orgファイル&#45;&gt;markdownファイル -->
<g id="edge2" class="edge">
<title>orgファイル&#45;&gt;markdownファイル</title>
<path fill="none" stroke="black" d="M79.29,-36.18C79.29,-47.81 79.29,-63.42 79.29,-76.73"/>
<polygon fill="black" stroke="black" points="75.79,-76.8 79.29,-86.8 82.79,-76.8 75.79,-76.8"/>
<text text-anchor="middle" x="86.79" y="-57.8" font-family="Times,serif" font-size="14.00">◯</text>
</g>
</g>
</svg>
